<mxfile host="drawio-plugin" modified="2023-04-28T02:04:43.536Z" agent="5.0 (X11; Linux x86_64) AppleWebKit/537.36 (KHTML, like Gecko) Chrome/104.0.5112.102 Safari/537.36" etag="iUrISsuVBRQAOWyhLbek" version="20.5.3" type="embed"><diagram id="C5RBs43oDa-KdzZeNtuy" name="Page-1"><mxGraphModel dx="438" dy="300" grid="1" gridSize="10" guides="1" tooltips="1" connect="1" arrows="1" fold="1" page="1" pageScale="1" pageWidth="827" pageHeight="1169" math="0" shadow="0"><root><mxCell id="WIyWlLk6GJQsqaUBKTNV-0"/><mxCell id="WIyWlLk6GJQsqaUBKTNV-1" parent="WIyWlLk6GJQsqaUBKTNV-0"/><mxCell id="zkfFHV4jXpPFQw0GAbJ--0" value="Pronosticador" style="swimlane;fontStyle=2;align=center;verticalAlign=top;childLayout=stackLayout;horizontal=1;startSize=26;horizontalStack=0;resizeParent=1;resizeLast=0;collapsible=1;marginBottom=0;rounded=0;shadow=0;strokeWidth=1;" parent="WIyWlLk6GJQsqaUBKTNV-1" vertex="1"><mxGeometry x="50.5" y="260" width="209.5" height="450" as="geometry"><mxRectangle x="230" y="140" width="160" height="26" as="alternateBounds"/></mxGeometry></mxCell><mxCell id="zkfFHV4jXpPFQw0GAbJ--1" value="-Nombre (string)" style="text;align=left;verticalAlign=top;spacingLeft=4;spacingRight=4;overflow=hidden;rotatable=0;points=[[0,0.5],[1,0.5]];portConstraint=eastwest;" parent="zkfFHV4jXpPFQw0GAbJ--0" vertex="1"><mxGeometry y="26" width="209.5" height="26" as="geometry"/></mxCell><mxCell id="zkfFHV4jXpPFQw0GAbJ--2" value="-Pronosticos: ArrayList&lt;Pronostico&gt;" style="text;align=left;verticalAlign=top;spacingLeft=4;spacingRight=4;overflow=hidden;rotatable=0;points=[[0,0.5],[1,0.5]];portConstraint=eastwest;rounded=0;shadow=0;html=0;" parent="zkfFHV4jXpPFQw0GAbJ--0" vertex="1"><mxGeometry y="52" width="209.5" height="26" as="geometry"/></mxCell><mxCell id="zkfFHV4jXpPFQw0GAbJ--3" value="-Puntaje (int)" style="text;align=left;verticalAlign=top;spacingLeft=4;spacingRight=4;overflow=hidden;rotatable=0;points=[[0,0.5],[1,0.5]];portConstraint=eastwest;rounded=0;shadow=0;html=0;" parent="zkfFHV4jXpPFQw0GAbJ--0" vertex="1"><mxGeometry y="78" width="209.5" height="26" as="geometry"/></mxCell><mxCell id="DqA6YUUayI3n1TD9eymB-11" value="-cantidad_de_aciertos (int)" style="text;align=left;verticalAlign=top;spacingLeft=4;spacingRight=4;overflow=hidden;rotatable=0;points=[[0,0.5],[1,0.5]];portConstraint=eastwest;" parent="zkfFHV4jXpPFQw0GAbJ--0" vertex="1"><mxGeometry y="104" width="209.5" height="26" as="geometry"/></mxCell><mxCell id="xFA1fQ65oce24mrFbZnE-10" value="-aciertos_por_ronda(AciertoRonda)" style="text;align=left;verticalAlign=top;spacingLeft=4;spacingRight=4;overflow=hidden;rotatable=0;points=[[0,0.5],[1,0.5]];portConstraint=eastwest;" parent="zkfFHV4jXpPFQw0GAbJ--0" vertex="1"><mxGeometry y="130" width="209.5" height="26" as="geometry"/></mxCell><mxCell id="zkfFHV4jXpPFQw0GAbJ--4" value="" style="line;html=1;strokeWidth=1;align=left;verticalAlign=middle;spacingTop=-1;spacingLeft=3;spacingRight=3;rotatable=0;labelPosition=right;points=[];portConstraint=eastwest;" parent="zkfFHV4jXpPFQw0GAbJ--0" vertex="1"><mxGeometry y="156" width="209.5" height="8" as="geometry"/></mxCell><mxCell id="6R7G5v0geCEUhkNt8KJi-0" value="+Pronosticador() void" style="text;align=left;verticalAlign=top;spacingLeft=4;spacingRight=4;overflow=hidden;rotatable=0;points=[[0,0.5],[1,0.5]];portConstraint=eastwest;rounded=0;shadow=0;html=0;" parent="zkfFHV4jXpPFQw0GAbJ--0" vertex="1"><mxGeometry y="164" width="209.5" height="26" as="geometry"/></mxCell><mxCell id="6R7G5v0geCEUhkNt8KJi-1" value="+set_puntaje() void" style="text;align=left;verticalAlign=top;spacingLeft=4;spacingRight=4;overflow=hidden;rotatable=0;points=[[0,0.5],[1,0.5]];portConstraint=eastwest;rounded=0;shadow=0;html=0;" parent="zkfFHV4jXpPFQw0GAbJ--0" vertex="1"><mxGeometry y="190" width="209.5" height="26" as="geometry"/></mxCell><mxCell id="6R7G5v0geCEUhkNt8KJi-2" value="+get_puntaje() int" style="text;align=left;verticalAlign=top;spacingLeft=4;spacingRight=4;overflow=hidden;rotatable=0;points=[[0,0.5],[1,0.5]];portConstraint=eastwest;rounded=0;shadow=0;html=0;" parent="zkfFHV4jXpPFQw0GAbJ--0" vertex="1"><mxGeometry y="216" width="209.5" height="26" as="geometry"/></mxCell><mxCell id="6R7G5v0geCEUhkNt8KJi-11" value="+agregar_pronostico() void" style="text;align=left;verticalAlign=top;spacingLeft=4;spacingRight=4;overflow=hidden;rotatable=0;points=[[0,0.5],[1,0.5]];portConstraint=eastwest;rounded=0;shadow=0;html=0;" parent="zkfFHV4jXpPFQw0GAbJ--0" vertex="1"><mxGeometry y="242" width="209.5" height="26" as="geometry"/></mxCell><mxCell id="6R7G5v0geCEUhkNt8KJi-54" value="+obtener_pronostico() Pronostico" style="text;align=left;verticalAlign=top;spacingLeft=4;spacingRight=4;overflow=hidden;rotatable=0;points=[[0,0.5],[1,0.5]];portConstraint=eastwest;rounded=0;shadow=0;html=0;" parent="zkfFHV4jXpPFQw0GAbJ--0" vertex="1"><mxGeometry y="268" width="209.5" height="26" as="geometry"/></mxCell><mxCell id="vWc4QgYB8OH_UsFIo5gL-0" value="+get_nombre() String" style="text;align=left;verticalAlign=top;spacingLeft=4;spacingRight=4;overflow=hidden;rotatable=0;points=[[0,0.5],[1,0.5]];portConstraint=eastwest;rounded=0;shadow=0;html=0;" parent="zkfFHV4jXpPFQw0GAbJ--0" vertex="1"><mxGeometry y="294" width="209.5" height="26" as="geometry"/></mxCell><mxCell id="DqA6YUUayI3n1TD9eymB-10" value="+aumentar_aciertos() Void" style="text;align=left;verticalAlign=top;spacingLeft=4;spacingRight=4;overflow=hidden;rotatable=0;points=[[0,0.5],[1,0.5]];portConstraint=eastwest;rounded=0;shadow=0;html=0;" parent="zkfFHV4jXpPFQw0GAbJ--0" vertex="1"><mxGeometry y="320" width="209.5" height="26" as="geometry"/></mxCell><mxCell id="DqA6YUUayI3n1TD9eymB-12" value="+get_cantidad_aciertos() int" style="text;align=left;verticalAlign=top;spacingLeft=4;spacingRight=4;overflow=hidden;rotatable=0;points=[[0,0.5],[1,0.5]];portConstraint=eastwest;rounded=0;shadow=0;html=0;" parent="zkfFHV4jXpPFQw0GAbJ--0" vertex="1"><mxGeometry y="346" width="209.5" height="26" as="geometry"/></mxCell><mxCell id="xFA1fQ65oce24mrFbZnE-11" value="+inicializar_aciertos_por_ronda() void" style="text;align=left;verticalAlign=top;spacingLeft=4;spacingRight=4;overflow=hidden;rotatable=0;points=[[0,0.5],[1,0.5]];portConstraint=eastwest;rounded=0;shadow=0;html=0;" parent="zkfFHV4jXpPFQw0GAbJ--0" vertex="1"><mxGeometry y="372" width="209.5" height="26" as="geometry"/></mxCell><mxCell id="xFA1fQ65oce24mrFbZnE-9" value="+aumentar_aciertos_de_ronda() void" style="text;align=left;verticalAlign=top;spacingLeft=4;spacingRight=4;overflow=hidden;rotatable=0;points=[[0,0.5],[1,0.5]];portConstraint=eastwest;rounded=0;shadow=0;html=0;" parent="zkfFHV4jXpPFQw0GAbJ--0" vertex="1"><mxGeometry y="398" width="209.5" height="26" as="geometry"/></mxCell><mxCell id="xFA1fQ65oce24mrFbZnE-12" value="+get_aciertos_de_ronda() int" style="text;align=left;verticalAlign=top;spacingLeft=4;spacingRight=4;overflow=hidden;rotatable=0;points=[[0,0.5],[1,0.5]];portConstraint=eastwest;rounded=0;shadow=0;html=0;" parent="zkfFHV4jXpPFQw0GAbJ--0" vertex="1"><mxGeometry y="424" width="209.5" height="26" as="geometry"/></mxCell><mxCell id="zkfFHV4jXpPFQw0GAbJ--17" value="Pronostico" style="swimlane;fontStyle=0;align=center;verticalAlign=top;childLayout=stackLayout;horizontal=1;startSize=26;horizontalStack=0;resizeParent=1;resizeLast=0;collapsible=1;marginBottom=0;rounded=0;shadow=0;strokeWidth=1;" parent="WIyWlLk6GJQsqaUBKTNV-1" vertex="1"><mxGeometry x="10" y="748" width="160" height="216" as="geometry"><mxRectangle x="550" y="140" width="160" height="26" as="alternateBounds"/></mxGeometry></mxCell><mxCell id="zkfFHV4jXpPFQw0GAbJ--18" value="-ID_partido (int)" style="text;align=left;verticalAlign=top;spacingLeft=4;spacingRight=4;overflow=hidden;rotatable=0;points=[[0,0.5],[1,0.5]];portConstraint=eastwest;" parent="zkfFHV4jXpPFQw0GAbJ--17" vertex="1"><mxGeometry y="26" width="160" height="26" as="geometry"/></mxCell><mxCell id="zkfFHV4jXpPFQw0GAbJ--19" value="-ID_ronda (int)" style="text;align=left;verticalAlign=top;spacingLeft=4;spacingRight=4;overflow=hidden;rotatable=0;points=[[0,0.5],[1,0.5]];portConstraint=eastwest;rounded=0;shadow=0;html=0;" parent="zkfFHV4jXpPFQw0GAbJ--17" vertex="1"><mxGeometry y="52" width="160" height="26" as="geometry"/></mxCell><mxCell id="zkfFHV4jXpPFQw0GAbJ--20" value="-pronostico (int)" style="text;align=left;verticalAlign=top;spacingLeft=4;spacingRight=4;overflow=hidden;rotatable=0;points=[[0,0.5],[1,0.5]];portConstraint=eastwest;rounded=0;shadow=0;html=0;" parent="zkfFHV4jXpPFQw0GAbJ--17" vertex="1"><mxGeometry y="78" width="160" height="26" as="geometry"/></mxCell><mxCell id="zkfFHV4jXpPFQw0GAbJ--23" value="" style="line;html=1;strokeWidth=1;align=left;verticalAlign=middle;spacingTop=-1;spacingLeft=3;spacingRight=3;rotatable=0;labelPosition=right;points=[];portConstraint=eastwest;" parent="zkfFHV4jXpPFQw0GAbJ--17" vertex="1"><mxGeometry y="104" width="160" height="8" as="geometry"/></mxCell><mxCell id="zkfFHV4jXpPFQw0GAbJ--24" value="+Pronostico () void" style="text;align=left;verticalAlign=top;spacingLeft=4;spacingRight=4;overflow=hidden;rotatable=0;points=[[0,0.5],[1,0.5]];portConstraint=eastwest;" parent="zkfFHV4jXpPFQw0GAbJ--17" vertex="1"><mxGeometry y="112" width="160" height="26" as="geometry"/></mxCell><mxCell id="zkfFHV4jXpPFQw0GAbJ--25" value="+get_id_partido () int" style="text;align=left;verticalAlign=top;spacingLeft=4;spacingRight=4;overflow=hidden;rotatable=0;points=[[0,0.5],[1,0.5]];portConstraint=eastwest;" parent="zkfFHV4jXpPFQw0GAbJ--17" vertex="1"><mxGeometry y="138" width="160" height="26" as="geometry"/></mxCell><mxCell id="6R7G5v0geCEUhkNt8KJi-12" value="+get_id_ronda () int" style="text;align=left;verticalAlign=top;spacingLeft=4;spacingRight=4;overflow=hidden;rotatable=0;points=[[0,0.5],[1,0.5]];portConstraint=eastwest;" parent="zkfFHV4jXpPFQw0GAbJ--17" vertex="1"><mxGeometry y="164" width="160" height="26" as="geometry"/></mxCell><mxCell id="6R7G5v0geCEUhkNt8KJi-13" value="+get_pronostico () int" style="text;align=left;verticalAlign=top;spacingLeft=4;spacingRight=4;overflow=hidden;rotatable=0;points=[[0,0.5],[1,0.5]];portConstraint=eastwest;" parent="zkfFHV4jXpPFQw0GAbJ--17" vertex="1"><mxGeometry y="190" width="160" height="26" as="geometry"/></mxCell><mxCell id="6R7G5v0geCEUhkNt8KJi-14" value="Partido" style="swimlane;fontStyle=2;align=center;verticalAlign=top;childLayout=stackLayout;horizontal=1;startSize=26;horizontalStack=0;resizeParent=1;resizeLast=0;collapsible=1;marginBottom=0;rounded=0;shadow=0;strokeWidth=1;" parent="WIyWlLk6GJQsqaUBKTNV-1" vertex="1"><mxGeometry x="585.5" y="580" width="170" height="350" as="geometry"><mxRectangle x="230" y="140" width="160" height="26" as="alternateBounds"/></mxGeometry></mxCell><mxCell id="6R7G5v0geCEUhkNt8KJi-15" value="-ID_partido (int)" style="text;align=left;verticalAlign=top;spacingLeft=4;spacingRight=4;overflow=hidden;rotatable=0;points=[[0,0.5],[1,0.5]];portConstraint=eastwest;" parent="6R7G5v0geCEUhkNt8KJi-14" vertex="1"><mxGeometry y="26" width="170" height="26" as="geometry"/></mxCell><mxCell id="6R7G5v0geCEUhkNt8KJi-16" value="-ID_ronda (int)" style="text;align=left;verticalAlign=top;spacingLeft=4;spacingRight=4;overflow=hidden;rotatable=0;points=[[0,0.5],[1,0.5]];portConstraint=eastwest;rounded=0;shadow=0;html=0;" parent="6R7G5v0geCEUhkNt8KJi-14" vertex="1"><mxGeometry y="52" width="170" height="26" as="geometry"/></mxCell><mxCell id="6R7G5v0geCEUhkNt8KJi-17" value="-ID_Equipo1 (string)" style="text;align=left;verticalAlign=top;spacingLeft=4;spacingRight=4;overflow=hidden;rotatable=0;points=[[0,0.5],[1,0.5]];portConstraint=eastwest;rounded=0;shadow=0;html=0;" parent="6R7G5v0geCEUhkNt8KJi-14" vertex="1"><mxGeometry y="78" width="170" height="26" as="geometry"/></mxCell><mxCell id="6R7G5v0geCEUhkNt8KJi-23" value="-ID_Equipo2 (string)" style="text;align=left;verticalAlign=top;spacingLeft=4;spacingRight=4;overflow=hidden;rotatable=0;points=[[0,0.5],[1,0.5]];portConstraint=eastwest;rounded=0;shadow=0;html=0;" parent="6R7G5v0geCEUhkNt8KJi-14" vertex="1"><mxGeometry y="104" width="170" height="26" as="geometry"/></mxCell><mxCell id="6R7G5v0geCEUhkNt8KJi-24" value="-Goles_equipo1 (int)" style="text;align=left;verticalAlign=top;spacingLeft=4;spacingRight=4;overflow=hidden;rotatable=0;points=[[0,0.5],[1,0.5]];portConstraint=eastwest;rounded=0;shadow=0;html=0;" parent="6R7G5v0geCEUhkNt8KJi-14" vertex="1"><mxGeometry y="130" width="170" height="26" as="geometry"/></mxCell><mxCell id="6R7G5v0geCEUhkNt8KJi-25" value="-Goles_equipo2 (int)" style="text;align=left;verticalAlign=top;spacingLeft=4;spacingRight=4;overflow=hidden;rotatable=0;points=[[0,0.5],[1,0.5]];portConstraint=eastwest;rounded=0;shadow=0;html=0;" parent="6R7G5v0geCEUhkNt8KJi-14" vertex="1"><mxGeometry y="156" width="170" height="26" as="geometry"/></mxCell><mxCell id="6R7G5v0geCEUhkNt8KJi-26" value="-Resultado_partido (int)" style="text;align=left;verticalAlign=top;spacingLeft=4;spacingRight=4;overflow=hidden;rotatable=0;points=[[0,0.5],[1,0.5]];portConstraint=eastwest;rounded=0;shadow=0;html=0;" parent="6R7G5v0geCEUhkNt8KJi-14" vertex="1"><mxGeometry y="182" width="170" height="26" as="geometry"/></mxCell><mxCell id="6R7G5v0geCEUhkNt8KJi-18" value="" style="line;html=1;strokeWidth=1;align=left;verticalAlign=middle;spacingTop=-1;spacingLeft=3;spacingRight=3;rotatable=0;labelPosition=right;points=[];portConstraint=eastwest;" parent="6R7G5v0geCEUhkNt8KJi-14" vertex="1"><mxGeometry y="208" width="170" height="8" as="geometry"/></mxCell><mxCell id="6R7G5v0geCEUhkNt8KJi-19" value="+Partido () void" style="text;align=left;verticalAlign=top;spacingLeft=4;spacingRight=4;overflow=hidden;rotatable=0;points=[[0,0.5],[1,0.5]];portConstraint=eastwest;rounded=0;shadow=0;html=0;" parent="6R7G5v0geCEUhkNt8KJi-14" vertex="1"><mxGeometry y="216" width="170" height="26" as="geometry"/></mxCell><mxCell id="6R7G5v0geCEUhkNt8KJi-20" value="-calcular_result_partido() void" style="text;align=left;verticalAlign=top;spacingLeft=4;spacingRight=4;overflow=hidden;rotatable=0;points=[[0,0.5],[1,0.5]];portConstraint=eastwest;rounded=0;shadow=0;html=0;" parent="6R7G5v0geCEUhkNt8KJi-14" vertex="1"><mxGeometry y="242" width="170" height="26" as="geometry"/></mxCell><mxCell id="6R7G5v0geCEUhkNt8KJi-21" value="+get_id_partido () int" style="text;align=left;verticalAlign=top;spacingLeft=4;spacingRight=4;overflow=hidden;rotatable=0;points=[[0,0.5],[1,0.5]];portConstraint=eastwest;rounded=0;shadow=0;html=0;" parent="6R7G5v0geCEUhkNt8KJi-14" vertex="1"><mxGeometry y="268" width="170" height="26" as="geometry"/></mxCell><mxCell id="6R7G5v0geCEUhkNt8KJi-22" value="+get_id_ronda () int" style="text;align=left;verticalAlign=top;spacingLeft=4;spacingRight=4;overflow=hidden;rotatable=0;points=[[0,0.5],[1,0.5]];portConstraint=eastwest;rounded=0;shadow=0;html=0;" parent="6R7G5v0geCEUhkNt8KJi-14" vertex="1"><mxGeometry y="294" width="170" height="26" as="geometry"/></mxCell><mxCell id="6R7G5v0geCEUhkNt8KJi-28" value="+get_result_partido () int" style="text;align=left;verticalAlign=top;spacingLeft=4;spacingRight=4;overflow=hidden;rotatable=0;points=[[0,0.5],[1,0.5]];portConstraint=eastwest;rounded=0;shadow=0;html=0;" parent="6R7G5v0geCEUhkNt8KJi-14" vertex="1"><mxGeometry y="320" width="170" height="26" as="geometry"/></mxCell><mxCell id="6R7G5v0geCEUhkNt8KJi-40" value="Ronda" style="swimlane;fontStyle=2;align=center;verticalAlign=top;childLayout=stackLayout;horizontal=1;startSize=26;horizontalStack=0;resizeParent=1;resizeLast=0;collapsible=1;marginBottom=0;rounded=0;shadow=0;strokeWidth=1;" parent="WIyWlLk6GJQsqaUBKTNV-1" vertex="1"><mxGeometry x="585.5" y="250" width="184.5" height="216" as="geometry"><mxRectangle x="230" y="140" width="160" height="26" as="alternateBounds"/></mxGeometry></mxCell><mxCell id="6R7G5v0geCEUhkNt8KJi-42" value="-ID_ronda (int)" style="text;align=left;verticalAlign=top;spacingLeft=4;spacingRight=4;overflow=hidden;rotatable=0;points=[[0,0.5],[1,0.5]];portConstraint=eastwest;rounded=0;shadow=0;html=0;" parent="6R7G5v0geCEUhkNt8KJi-40" vertex="1"><mxGeometry y="26" width="184.5" height="26" as="geometry"/></mxCell><mxCell id="6R7G5v0geCEUhkNt8KJi-43" value="-Partidos: ArrayList&lt;Partido&gt;" style="text;align=left;verticalAlign=top;spacingLeft=4;spacingRight=4;overflow=hidden;rotatable=0;points=[[0,0.5],[1,0.5]];portConstraint=eastwest;rounded=0;shadow=0;html=0;" parent="6R7G5v0geCEUhkNt8KJi-40" vertex="1"><mxGeometry y="52" width="184.5" height="26" as="geometry"/></mxCell><mxCell id="6R7G5v0geCEUhkNt8KJi-48" value="" style="line;html=1;strokeWidth=1;align=left;verticalAlign=middle;spacingTop=-1;spacingLeft=3;spacingRight=3;rotatable=0;labelPosition=right;points=[];portConstraint=eastwest;" parent="6R7G5v0geCEUhkNt8KJi-40" vertex="1"><mxGeometry y="78" width="184.5" height="8" as="geometry"/></mxCell><mxCell id="6R7G5v0geCEUhkNt8KJi-49" value="+Ronda () void" style="text;align=left;verticalAlign=top;spacingLeft=4;spacingRight=4;overflow=hidden;rotatable=0;points=[[0,0.5],[1,0.5]];portConstraint=eastwest;rounded=0;shadow=0;html=0;" parent="6R7G5v0geCEUhkNt8KJi-40" vertex="1"><mxGeometry y="86" width="184.5" height="26" as="geometry"/></mxCell><mxCell id="6R7G5v0geCEUhkNt8KJi-50" value="+Agregar_partido() void" style="text;align=left;verticalAlign=top;spacingLeft=4;spacingRight=4;overflow=hidden;rotatable=0;points=[[0,0.5],[1,0.5]];portConstraint=eastwest;rounded=0;shadow=0;html=0;" parent="6R7G5v0geCEUhkNt8KJi-40" vertex="1"><mxGeometry y="112" width="184.5" height="26" as="geometry"/></mxCell><mxCell id="6R7G5v0geCEUhkNt8KJi-51" value="+Obtener_partido() Partido" style="text;align=left;verticalAlign=top;spacingLeft=4;spacingRight=4;overflow=hidden;rotatable=0;points=[[0,0.5],[1,0.5]];portConstraint=eastwest;rounded=0;shadow=0;html=0;" parent="6R7G5v0geCEUhkNt8KJi-40" vertex="1"><mxGeometry y="138" width="184.5" height="26" as="geometry"/></mxCell><mxCell id="6R7G5v0geCEUhkNt8KJi-52" value="+get_id_ronda () int" style="text;align=left;verticalAlign=top;spacingLeft=4;spacingRight=4;overflow=hidden;rotatable=0;points=[[0,0.5],[1,0.5]];portConstraint=eastwest;rounded=0;shadow=0;html=0;" parent="6R7G5v0geCEUhkNt8KJi-40" vertex="1"><mxGeometry y="164" width="184.5" height="26" as="geometry"/></mxCell><mxCell id="xFA1fQ65oce24mrFbZnE-8" value="+get_cantidad_de_partidos() int" style="text;align=left;verticalAlign=top;spacingLeft=4;spacingRight=4;overflow=hidden;rotatable=0;points=[[0,0.5],[1,0.5]];portConstraint=eastwest;rounded=0;shadow=0;html=0;" parent="6R7G5v0geCEUhkNt8KJi-40" vertex="1"><mxGeometry y="190" width="184.5" height="26" as="geometry"/></mxCell><mxCell id="6R7G5v0geCEUhkNt8KJi-55" value="Competencia" style="swimlane;fontStyle=2;align=center;verticalAlign=top;childLayout=stackLayout;horizontal=1;startSize=26;horizontalStack=0;resizeParent=1;resizeLast=0;collapsible=1;marginBottom=0;rounded=0;shadow=0;strokeWidth=1;" parent="WIyWlLk6GJQsqaUBKTNV-1" vertex="1"><mxGeometry x="299" y="220" width="250" height="380" as="geometry"><mxRectangle x="230" y="140" width="160" height="26" as="alternateBounds"/></mxGeometry></mxCell><mxCell id="6R7G5v0geCEUhkNt8KJi-56" value="-Rondas: ArrayList&lt;Ronda&gt;" style="text;align=left;verticalAlign=top;spacingLeft=4;spacingRight=4;overflow=hidden;rotatable=0;points=[[0,0.5],[1,0.5]];portConstraint=eastwest;" parent="6R7G5v0geCEUhkNt8KJi-55" vertex="1"><mxGeometry y="26" width="250" height="26" as="geometry"/></mxCell><mxCell id="6R7G5v0geCEUhkNt8KJi-58" value="-Pronosticadores: ArrayList&lt;Pronosticador&gt;" style="text;align=left;verticalAlign=top;spacingLeft=4;spacingRight=4;overflow=hidden;rotatable=0;points=[[0,0.5],[1,0.5]];portConstraint=eastwest;rounded=0;shadow=0;html=0;" parent="6R7G5v0geCEUhkNt8KJi-55" vertex="1"><mxGeometry y="52" width="250" height="26" as="geometry"/></mxCell><mxCell id="CmX-zhRA13QZSJkFOn4o-8" value="-Puntos_por_acierto (int)" style="text;align=left;verticalAlign=top;spacingLeft=4;spacingRight=4;overflow=hidden;rotatable=0;points=[[0,0.5],[1,0.5]];portConstraint=eastwest;rounded=0;shadow=0;html=0;" parent="6R7G5v0geCEUhkNt8KJi-55" vertex="1"><mxGeometry y="78" width="250" height="26" as="geometry"/></mxCell><mxCell id="6R7G5v0geCEUhkNt8KJi-63" value="" style="line;html=1;strokeWidth=1;align=left;verticalAlign=middle;spacingTop=-1;spacingLeft=3;spacingRight=3;rotatable=0;labelPosition=right;points=[];portConstraint=eastwest;" parent="6R7G5v0geCEUhkNt8KJi-55" vertex="1"><mxGeometry y="104" width="250" height="8" as="geometry"/></mxCell><mxCell id="6R7G5v0geCEUhkNt8KJi-64" value="+Competencia () void" style="text;align=left;verticalAlign=top;spacingLeft=4;spacingRight=4;overflow=hidden;rotatable=0;points=[[0,0.5],[1,0.5]];portConstraint=eastwest;rounded=0;shadow=0;html=0;" parent="6R7G5v0geCEUhkNt8KJi-55" vertex="1"><mxGeometry y="112" width="250" height="26" as="geometry"/></mxCell><mxCell id="11" value="1" style="endArrow=open;html=1;endSize=12;startArrow=diamondThin;startSize=14;startFill=0;edgeStyle=orthogonalEdgeStyle;align=left;verticalAlign=bottom;rounded=0;" edge="1" parent="6R7G5v0geCEUhkNt8KJi-55" source="6R7G5v0geCEUhkNt8KJi-65"><mxGeometry x="-0.4286" y="20" relative="1" as="geometry"><mxPoint x="31" y="140" as="sourcePoint"/><mxPoint x="-39" y="150" as="targetPoint"/><Array as="points"><mxPoint x="-19" y="151"/><mxPoint x="-19" y="150"/></Array><mxPoint as="offset"/></mxGeometry></mxCell><mxCell id="6R7G5v0geCEUhkNt8KJi-65" value="+agregar_ronda () void" style="text;align=left;verticalAlign=top;spacingLeft=4;spacingRight=4;overflow=hidden;rotatable=0;points=[[0,0.5],[1,0.5]];portConstraint=eastwest;rounded=0;shadow=0;html=0;" parent="6R7G5v0geCEUhkNt8KJi-55" vertex="1"><mxGeometry y="138" width="250" height="26" as="geometry"/></mxCell><mxCell id="6R7G5v0geCEUhkNt8KJi-67" value="+agregar_pronosticador () void" style="text;align=left;verticalAlign=top;spacingLeft=4;spacingRight=4;overflow=hidden;rotatable=0;points=[[0,0.5],[1,0.5]];portConstraint=eastwest;rounded=0;shadow=0;html=0;" parent="6R7G5v0geCEUhkNt8KJi-55" vertex="1"><mxGeometry y="164" width="250" height="26" as="geometry"/></mxCell><mxCell id="6R7G5v0geCEUhkNt8KJi-68" value="-obtener_pronosticador () Pronosticador" style="text;align=left;verticalAlign=top;spacingLeft=4;spacingRight=4;overflow=hidden;rotatable=0;points=[[0,0.5],[1,0.5]];portConstraint=eastwest;rounded=0;shadow=0;html=0;" parent="6R7G5v0geCEUhkNt8KJi-55" vertex="1"><mxGeometry y="190" width="250" height="26" as="geometry"/></mxCell><mxCell id="6R7G5v0geCEUhkNt8KJi-70" value="-obtener_ronda () Ronda" style="text;align=left;verticalAlign=top;spacingLeft=4;spacingRight=4;overflow=hidden;rotatable=0;points=[[0,0.5],[1,0.5]];portConstraint=eastwest;rounded=0;shadow=0;html=0;" parent="6R7G5v0geCEUhkNt8KJi-55" vertex="1"><mxGeometry y="216" width="250" height="26" as="geometry"/></mxCell><mxCell id="LDfAkUrohdc3PfYvDBfV-0" value="+mostrar_puntajes () void" style="text;align=left;verticalAlign=top;spacingLeft=4;spacingRight=4;overflow=hidden;rotatable=0;points=[[0,0.5],[1,0.5]];portConstraint=eastwest;rounded=0;shadow=0;html=0;" parent="6R7G5v0geCEUhkNt8KJi-55" vertex="1"><mxGeometry y="242" width="250" height="26" as="geometry"/></mxCell><mxCell id="vWc4QgYB8OH_UsFIo5gL-1" value="-calcular_puntos() void" style="text;align=left;verticalAlign=top;spacingLeft=4;spacingRight=4;overflow=hidden;rotatable=0;points=[[0,0.5],[1,0.5]];portConstraint=eastwest;rounded=0;shadow=0;html=0;" parent="6R7G5v0geCEUhkNt8KJi-55" vertex="1"><mxGeometry y="268" width="250" height="26" as="geometry"/></mxCell><mxCell id="N-he6TgufRWfsQswLdx0-0" value="-agregar_partido() void" style="text;align=left;verticalAlign=top;spacingLeft=4;spacingRight=4;overflow=hidden;rotatable=0;points=[[0,0.5],[1,0.5]];portConstraint=eastwest;rounded=0;shadow=0;html=0;" parent="6R7G5v0geCEUhkNt8KJi-55" vertex="1"><mxGeometry y="294" width="250" height="26" as="geometry"/></mxCell><mxCell id="N-he6TgufRWfsQswLdx0-1" value="-agregar_pronostico() void" style="text;align=left;verticalAlign=top;spacingLeft=4;spacingRight=4;overflow=hidden;rotatable=0;points=[[0,0.5],[1,0.5]];portConstraint=eastwest;rounded=0;shadow=0;html=0;" parent="6R7G5v0geCEUhkNt8KJi-55" vertex="1"><mxGeometry y="320" width="250" height="26" as="geometry"/></mxCell><mxCell id="xFA1fQ65oce24mrFbZnE-14" value="-calcular_puntos_por_rondas() void" style="text;align=left;verticalAlign=top;spacingLeft=4;spacingRight=4;overflow=hidden;rotatable=0;points=[[0,0.5],[1,0.5]];portConstraint=eastwest;rounded=0;shadow=0;html=0;" parent="6R7G5v0geCEUhkNt8KJi-55" vertex="1"><mxGeometry y="346" width="250" height="26" as="geometry"/></mxCell><mxCell id="0" value="DatabaseConnector" style="swimlane;fontStyle=2;align=center;verticalAlign=top;childLayout=stackLayout;horizontal=1;startSize=26;horizontalStack=0;resizeParent=1;resizeLast=0;collapsible=1;marginBottom=0;rounded=0;shadow=0;strokeWidth=1;" parent="WIyWlLk6GJQsqaUBKTNV-1" vertex="1"><mxGeometry x="160" y="39" width="219" height="120" as="geometry"><mxRectangle x="230" y="140" width="160" height="26" as="alternateBounds"/></mxGeometry></mxCell><mxCell id="4" value="" style="line;html=1;strokeWidth=1;align=left;verticalAlign=middle;spacingTop=-1;spacingLeft=3;spacingRight=3;rotatable=0;labelPosition=right;points=[];portConstraint=eastwest;" parent="0" vertex="1"><mxGeometry y="26" width="219" height="8" as="geometry"/></mxCell><mxCell id="5" value="+cargarPartidos() void" style="text;align=left;verticalAlign=top;spacingLeft=4;spacingRight=4;overflow=hidden;rotatable=0;points=[[0,0.5],[1,0.5]];portConstraint=eastwest;rounded=0;shadow=0;html=0;" parent="0" vertex="1"><mxGeometry y="34" width="219" height="26" as="geometry"/></mxCell><mxCell id="7" value="+cargar_pronosticos() void" style="text;align=left;verticalAlign=top;spacingLeft=4;spacingRight=4;overflow=hidden;rotatable=0;points=[[0,0.5],[1,0.5]];portConstraint=eastwest;rounded=0;shadow=0;html=0;" parent="0" vertex="1"><mxGeometry y="60" width="219" height="26" as="geometry"/></mxCell><mxCell id="8" value="-determinar_pronostico_realizado () int" style="text;align=left;verticalAlign=top;spacingLeft=4;spacingRight=4;overflow=hidden;rotatable=0;points=[[0,0.5],[1,0.5]];portConstraint=eastwest;rounded=0;shadow=0;html=0;" parent="0" vertex="1"><mxGeometry y="86" width="219" height="26" as="geometry"/></mxCell><mxCell id="wrRFoq47m3Ph-XUnZJ2_-8" value="InputsUsuario" style="swimlane;fontStyle=2;align=center;verticalAlign=top;childLayout=stackLayout;horizontal=1;startSize=26;horizontalStack=0;resizeParent=1;resizeLast=0;collapsible=1;marginBottom=0;rounded=0;shadow=0;strokeWidth=1;" parent="WIyWlLk6GJQsqaUBKTNV-1" vertex="1"><mxGeometry x="420" y="40" width="219" height="60" as="geometry"><mxRectangle x="230" y="140" width="160" height="26" as="alternateBounds"/></mxGeometry></mxCell><mxCell id="wrRFoq47m3Ph-XUnZJ2_-11" value="" style="line;html=1;strokeWidth=1;align=left;verticalAlign=middle;spacingTop=-1;spacingLeft=3;spacingRight=3;rotatable=0;labelPosition=right;points=[];portConstraint=eastwest;" parent="wrRFoq47m3Ph-XUnZJ2_-8" vertex="1"><mxGeometry y="26" width="219" height="8" as="geometry"/></mxCell><mxCell id="wrRFoq47m3Ph-XUnZJ2_-12" value="+preguntar_puntos_por_acierto() int" style="text;align=left;verticalAlign=top;spacingLeft=4;spacingRight=4;overflow=hidden;rotatable=0;points=[[0,0.5],[1,0.5]];portConstraint=eastwest;rounded=0;shadow=0;html=0;" parent="wrRFoq47m3Ph-XUnZJ2_-8" vertex="1"><mxGeometry y="34" width="219" height="26" as="geometry"/></mxCell><mxCell id="xFA1fQ65oce24mrFbZnE-15" value="AciertoRonda" style="swimlane;fontStyle=0;align=center;verticalAlign=top;childLayout=stackLayout;horizontal=1;startSize=26;horizontalStack=0;resizeParent=1;resizeLast=0;collapsible=1;marginBottom=0;rounded=0;shadow=0;strokeWidth=1;" parent="WIyWlLk6GJQsqaUBKTNV-1" vertex="1"><mxGeometry x="180" y="748" width="160" height="200" as="geometry"><mxRectangle x="550" y="140" width="160" height="26" as="alternateBounds"/></mxGeometry></mxCell><mxCell id="xFA1fQ65oce24mrFbZnE-17" value="-ID_ronda (int)" style="text;align=left;verticalAlign=top;spacingLeft=4;spacingRight=4;overflow=hidden;rotatable=0;points=[[0,0.5],[1,0.5]];portConstraint=eastwest;rounded=0;shadow=0;html=0;" parent="xFA1fQ65oce24mrFbZnE-15" vertex="1"><mxGeometry y="26" width="160" height="26" as="geometry"/></mxCell><mxCell id="xFA1fQ65oce24mrFbZnE-18" value="-aciertos (int)" style="text;align=left;verticalAlign=top;spacingLeft=4;spacingRight=4;overflow=hidden;rotatable=0;points=[[0,0.5],[1,0.5]];portConstraint=eastwest;rounded=0;shadow=0;html=0;" parent="xFA1fQ65oce24mrFbZnE-15" vertex="1"><mxGeometry y="52" width="160" height="26" as="geometry"/></mxCell><mxCell id="xFA1fQ65oce24mrFbZnE-19" value="" style="line;html=1;strokeWidth=1;align=left;verticalAlign=middle;spacingTop=-1;spacingLeft=3;spacingRight=3;rotatable=0;labelPosition=right;points=[];portConstraint=eastwest;" parent="xFA1fQ65oce24mrFbZnE-15" vertex="1"><mxGeometry y="78" width="160" height="8" as="geometry"/></mxCell><mxCell id="xFA1fQ65oce24mrFbZnE-20" value="+AciertoRonda () void" style="text;align=left;verticalAlign=top;spacingLeft=4;spacingRight=4;overflow=hidden;rotatable=0;points=[[0,0.5],[1,0.5]];portConstraint=eastwest;" parent="xFA1fQ65oce24mrFbZnE-15" vertex="1"><mxGeometry y="86" width="160" height="26" as="geometry"/></mxCell><mxCell id="xFA1fQ65oce24mrFbZnE-21" value="+get_id_ronda () int" style="text;align=left;verticalAlign=top;spacingLeft=4;spacingRight=4;overflow=hidden;rotatable=0;points=[[0,0.5],[1,0.5]];portConstraint=eastwest;" parent="xFA1fQ65oce24mrFbZnE-15" vertex="1"><mxGeometry y="112" width="160" height="26" as="geometry"/></mxCell><mxCell id="xFA1fQ65oce24mrFbZnE-22" value="+get_aciertos () int" style="text;align=left;verticalAlign=top;spacingLeft=4;spacingRight=4;overflow=hidden;rotatable=0;points=[[0,0.5],[1,0.5]];portConstraint=eastwest;" parent="xFA1fQ65oce24mrFbZnE-15" vertex="1"><mxGeometry y="138" width="160" height="26" as="geometry"/></mxCell><mxCell id="xFA1fQ65oce24mrFbZnE-23" value="+aumentar_aciertos () void" style="text;align=left;verticalAlign=top;spacingLeft=4;spacingRight=4;overflow=hidden;rotatable=0;points=[[0,0.5],[1,0.5]];portConstraint=eastwest;" parent="xFA1fQ65oce24mrFbZnE-15" vertex="1"><mxGeometry y="164" width="160" height="26" as="geometry"/></mxCell><mxCell id="I3Xu_RByxuuqbmfy5Ynj-14" value="" style="endArrow=diamondThin;endFill=1;endSize=24;html=1;rounded=0;entryX=0.234;entryY=0.966;entryDx=0;entryDy=0;entryPerimeter=0;exitX=0.564;exitY=0.005;exitDx=0;exitDy=0;exitPerimeter=0;" parent="WIyWlLk6GJQsqaUBKTNV-1" edge="1"><mxGeometry width="160" relative="1" as="geometry"><mxPoint x="220.7199999999999" y="749.9599999999999" as="sourcePoint"/><mxPoint x="220.00300000000004" y="709.996" as="targetPoint"/></mxGeometry></mxCell><mxCell id="mRyRR99_jgQxrSxdJSSz-8" value="Use" style="endArrow=open;endSize=12;dashed=1;html=1;rounded=0;entryX=0.375;entryY=-0.011;entryDx=0;entryDy=0;entryPerimeter=0;" parent="WIyWlLk6GJQsqaUBKTNV-1" target="6R7G5v0geCEUhkNt8KJi-55" edge="1"><mxGeometry width="160" relative="1" as="geometry"><mxPoint x="280" y="160" as="sourcePoint"/><mxPoint x="370" y="200" as="targetPoint"/></mxGeometry></mxCell><mxCell id="9" value="1" style="endArrow=open;html=1;endSize=12;startArrow=diamondThin;startSize=14;startFill=0;edgeStyle=orthogonalEdgeStyle;align=left;verticalAlign=bottom;rounded=0;" edge="1" parent="WIyWlLk6GJQsqaUBKTNV-1"><mxGeometry x="-0.6364" y="10" relative="1" as="geometry"><mxPoint x="680" y="470" as="sourcePoint"/><mxPoint x="680" y="580" as="targetPoint"/><Array as="points"><mxPoint x="680" y="480"/><mxPoint x="680" y="577"/></Array><mxPoint as="offset"/></mxGeometry></mxCell><mxCell id="10" value="1" style="endArrow=open;html=1;endSize=12;startArrow=diamondThin;startSize=14;startFill=0;edgeStyle=orthogonalEdgeStyle;align=left;verticalAlign=bottom;rounded=0;" edge="1" parent="WIyWlLk6GJQsqaUBKTNV-1"><mxGeometry x="-0.6364" y="10" relative="1" as="geometry"><mxPoint x="100" y="710" as="sourcePoint"/><mxPoint x="100" y="750" as="targetPoint"/><Array as="points"><mxPoint x="100" y="720"/><mxPoint x="100" y="817"/></Array><mxPoint as="offset"/></mxGeometry></mxCell><mxCell id="12" value="1" style="endArrow=open;html=1;endSize=12;startArrow=diamondThin;startSize=14;startFill=0;edgeStyle=orthogonalEdgeStyle;align=left;verticalAlign=bottom;rounded=0;" edge="1" parent="WIyWlLk6GJQsqaUBKTNV-1"><mxGeometry x="-0.6364" y="10" relative="1" as="geometry"><mxPoint x="549" y="357.76" as="sourcePoint"/><mxPoint x="590" y="358" as="targetPoint"/><Array as="points"><mxPoint x="549" y="357.76"/></Array><mxPoint as="offset"/></mxGeometry></mxCell></root></mxGraphModel></diagram></mxfile>